<svg width="18" height="18" viewBox="0 0 18 18" fill="none" xmlns="http://www.w3.org/2000/svg">
<path d="M15.6296 3.45765C15.2465 3.0744 14.7917 2.77038 14.2911 2.56296C13.7905 2.35554 13.254 2.24878 12.7121 2.24878C12.1702 2.24878 11.6337 2.35554 11.1331 2.56296C10.6325 2.77038 10.1777 3.0744 9.7946 3.45765L8.9996 4.25265L8.2046 3.45765C7.43083 2.68388 6.38138 2.24918 5.2871 2.24918C4.19283 2.24918 3.14337 2.68388 2.3696 3.45765C1.59583 4.23142 1.16113 5.28087 1.16113 6.37515C1.16113 7.46942 1.59583 8.51888 2.3696 9.29265L3.1646 10.0876L8.9996 15.9226L14.8346 10.0876L15.6296 9.29265C16.0128 8.90958 16.3169 8.45476 16.5243 7.95416C16.7317 7.45357 16.8385 6.91701 16.8385 6.37515C16.8385 5.83328 16.7317 5.29673 16.5243 4.79613C16.3169 4.29554 16.0128 3.84072 15.6296 3.45765Z" stroke="white" stroke-width="1.5" stroke-linecap="round" stroke-linejoin="round"/>
<path d="M9 4.2524L9.795 3.4574C10.1781 3.07416 10.6329 2.77014 11.1335 2.56272C11.6341 2.3553 12.1706 2.24854 12.7125 2.24854C13.2544 2.24854 13.7909 2.3553 14.2915 2.56272C14.7921 2.77014 15.2469 3.07416 15.63 3.4574C16.0132 3.84047 16.3173 4.29529 16.5247 4.79589C16.7321 5.29648 16.8389 5.83304 16.8389 6.3749C16.8389 6.91677 16.7321 7.45333 16.5247 7.95392" stroke="#EA305C" stroke-width="1.5" stroke-linecap="round" stroke-linejoin="round"/>
</svg>
